<svg width="25" height="18" viewBox="0 0 25 18" fill="none" xmlns="http://www.w3.org/2000/svg">
<path d="M18.75 16.25C18.75 16.9403 18.1903 17.5 17.5 17.5L1.25 17.5C0.559668 17.5 0 16.9403 0 16.25C0 15.5597 0.559668 15 1.25 15L17.5 15C18.1903 15 18.75 15.5597 18.75 16.25ZM1.25 10L23.75 10C24.4403 10 25 9.44028 25 8.75C25 8.05967 24.4403 7.5 23.75 7.5L1.25 7.5C0.559668 7.5 0 8.05967 0 8.75C0 9.44028 0.559668 10 1.25 10ZM1.25 2.5L12.5 2.5C13.1903 2.5 13.75 1.94033 13.75 1.25C13.75 0.559715 13.1903 -1.90735e-06 12.5 -1.90735e-06L1.25 -1.90735e-06C0.559668 -1.90735e-06 0 0.559715 0 1.25C0 1.94033 0.559668 2.5 1.25 2.5Z" fill="white"/>
</svg>
